<?xml version="1.0" encoding="UTF-8"?>
<svg xmlns="http://www.w3.org/2000/svg" width="723.18" height="756.95" viewBox="0 0 723.18 756.95">
  <path d="M 490.42,744.95 L 505.38,744.09 L 522.38,741.95 L 536.38,739.09 L 548.38,736.16 L 564.38,731.07 L 574.38,727.16 L 585.38,722.16 L 600.38,714.30 L 607.38,710.14 L 616.38,704.11 L 624.38,698.51 L 630.38,693.81 L 640.38,685.25 L 647.03,678.95 L 655.55,669.95 L 660.77,663.95 L 672.38,648.83 L 678.38,639.84 L 683.74,630.95 L 689.61,619.95 L 694.98,607.95 L 697.74,600.95 L 702.42,586.95 L 704.44,579.95 L 706.53,570.95 L 708.40,560.95 L 710.86,539.95 L 711.18,524.95 L 710.45,507.95 L 707.91,488.95 L 704.67,473.95 L 701.77,463.95 L 698.68,454.95 L 694.74,444.95 L 690.71,435.95 L 688.38,431.28 L 682.87,421.95 L 673.38,408.00 L 667.38,400.30 L 661.77,393.95 L 656.38,388.40 L 648.38,380.94 L 638.38,372.78 L 632.38,368.36 L 617.38,358.88 L 609.38,354.56 L 601.38,350.88 L 593.38,347.65 L 578.38,342.61 L 571.38,340.63 L 562.38,338.64 L 544.38,336.29 L 531.38,335.63 L 520.38,335.66 L 509.38,336.46 L 501.38,337.52 L 492.38,339.20 L 485.38,340.88 L 473.38,344.60 L 463.38,348.41 L 456.38,351.60 L 446.38,356.84 L 440.38,360.49 L 430.81,366.95 L 423.38,372.60 L 415.38,379.41 L 402.38,392.53 L 392.15,404.95 L 386.21,413.95 L 379.24,425.95 L 374.98,434.95 L 371.76,442.95 L 369.04,450.95 L 365.96,461.95 L 364.28,469.95 L 362.15,485.95 L 361.58,494.95 L 361.53,502.95 L 362.02,511.95 L 363.04,520.95 L 364.22,527.95 L 366.09,535.95 L 371.01,550.95 L 373.94,557.95 L 376.89,563.95 L 380.20,569.95 L 385.92,578.95 L 391.12,585.95 L 396.33,591.95 L 406.48,601.95 L 418.38,611.60 L 430.38,619.43 L 439.38,624.03 L 449.38,628.42 L 454.38,630.33 L 463.38,633.11 L 471.38,635.00 L 478.38,636.25 L 494.38,637.65 L 502.38,637.64 L 512.38,637.07 L 524.38,635.00 L 534.38,632.31 L 540.38,630.15 L 547.38,627.12 L 553.38,624.04 L 560.38,620.02 L 564.38,617.25 L 568.38,614.33 L 576.08,607.95 L 585.38,598.57 L 592.39,589.95 L 598.81,579.95 L 604.55,567.95 L 608.84,555.95 L 611.53,543.95 L 612.88,531.95 L 613.05,520.95 L 612.65,514.95 L 611.62,506.95 L 610.28,499.95 L 608.74,493.95 L 604.69,482.95 L 599.73,472.95 L 596.67,467.95 L 592.38,462.15 L 585.38,454.46 L 581.38,450.80 L 576.38,446.83 L 569.38,442.28 L 562.38,438.63 L 552.38,434.74 L 544.38,432.73 L 538.38,431.82 L 533.38,431.45 L 524.38,431.41 L 519.38,431.71 L 514.38,432.45 L 505.38,434.54 L 495.38,438.59 L 486.38,443.72 L 479.38,448.73 L 474.38,453.00 L 467.18,460.95 L 462.16,467.95 L 458.27,474.95 L 454.17,484.95 L 452.73,489.95 L 451.06,498.95 L 450.63,505.95 L 450.76,512.95 L 451.51,515.95 L 452.38,517.46 L 453.76,518.95 L 455.38,519.99 L 457.38,520.60 L 460.38,520.62 L 462.38,520.02 L 464.38,518.58 L 466.22,515.95 L 467.03,512.95 L 467.12,504.95 L 467.87,497.95 L 468.85,492.95 L 470.08,488.95 L 472.07,483.95 L 475.16,477.95 L 478.38,473.10 L 482.38,468.08 L 485.38,464.94 L 490.38,460.59 L 494.38,457.61 L 499.38,454.61 L 503.38,452.54 L 508.38,450.58 L 519.38,447.93 L 525.38,447.31 L 531.38,447.28 L 537.38,447.81 L 545.38,449.41 L 549.38,450.61 L 554.38,452.72 L 560.38,455.70 L 565.38,458.93 L 570.38,462.85 L 574.80,466.95 L 579.38,472.23 L 582.83,476.95 L 585.93,481.95 L 588.57,486.95 L 591.58,493.95 L 592.94,497.95 L 595.71,509.95 L 596.88,518.95 L 596.93,528.95 L 595.55,540.95 L 593.08,551.95 L 589.50,561.95 L 584.46,571.95 L 578.38,581.46 L 571.38,589.83 L 563.38,597.61 L 553.38,605.13 L 545.38,610.00 L 535.25,614.95 L 525.38,618.30 L 517.38,620.16 L 508.38,621.35 L 501.38,621.71 L 494.38,621.72 L 487.38,621.27 L 479.38,620.24 L 471.38,618.61 L 456.55,613.95 L 447.38,610.03 L 443.38,608.00 L 436.38,604.08 L 429.38,599.46 L 423.38,594.98 L 419.38,591.57 L 412.38,585.05 L 407.38,579.80 L 399.38,569.67 L 396.11,564.95 L 392.38,558.46 L 386.20,544.95 L 382.04,532.95 L 378.96,518.95 L 377.62,506.95 L 377.40,498.95 L 377.59,493.95 L 378.88,480.95 L 381.00,468.95 L 383.14,459.95 L 386.00,450.95 L 389.19,442.95 L 393.36,433.95 L 398.32,424.95 L 403.38,417.34 L 409.38,409.23 L 415.38,401.98 L 422.04,394.95 L 430.38,387.52 L 437.38,381.93 L 446.38,375.66 L 454.38,370.82 L 462.38,366.59 L 471.38,362.63 L 486.38,357.38 L 493.38,355.44 L 501.38,353.90 L 512.38,352.38 L 522.38,351.60 L 531.38,351.57 L 539.38,351.98 L 549.38,353.03 L 559.38,354.63 L 568.38,356.57 L 576.38,358.90 L 584.38,361.68 L 594.38,365.69 L 601.38,368.82 L 608.38,372.49 L 615.38,376.64 L 624.38,382.53 L 632.38,388.70 L 641.38,396.45 L 649.63,404.95 L 656.69,412.95 L 664.38,423.17 L 668.86,429.95 L 674.55,439.95 L 677.55,445.95 L 682.61,457.95 L 686.75,469.95 L 689.38,479.19 L 691.52,488.95 L 692.84,496.95 L 694.59,511.95 L 695.07,521.95 L 694.98,533.95 L 694.41,542.95 L 693.34,551.95 L 690.90,566.95 L 688.52,576.95 L 683.88,591.95 L 680.76,599.95 L 674.47,613.95 L 669.73,622.95 L 663.67,632.95 L 656.64,642.95 L 650.42,650.95 L 641.38,661.41 L 627.38,675.19 L 616.56,683.95 L 608.36,689.95 L 599.36,695.95 L 592.38,700.12 L 581.38,706.07 L 572.38,710.38 L 562.38,714.52 L 555.38,717.04 L 538.38,722.08 L 519.38,726.25 L 501.38,728.46 L 490.38,728.99 L 477.38,729.08 L 456.38,727.67 L 445.38,726.22 L 434.38,724.26 L 412.38,719.22 L 390.38,712.13 L 375.38,706.00 L 355.38,696.13 L 340.38,687.17 L 328.56,678.95 L 319.25,671.95 L 309.45,663.95 L 299.69,654.95 L 291.57,646.95 L 276.38,630.21 L 263.38,613.76 L 253.00,598.95 L 247.15,589.95 L 237.26,572.95 L 229.88,558.95 L 218.27,533.95 L 213.09,520.95 L 212.29,517.95 L 213.38,517.29 L 221.38,520.15 L 228.38,522.23 L 238.38,524.32 L 246.38,525.19 L 260.38,525.08 L 267.38,524.19 L 272.38,523.16 L 277.17,521.95 L 285.38,519.17 L 296.38,514.01 L 304.38,509.01 L 312.93,501.95 L 320.72,493.95 L 326.73,485.95 L 330.38,479.85 L 332.81,474.95 L 336.87,463.95 L 338.38,457.87 L 339.64,450.95 L 340.31,443.95 L 340.44,438.95 L 340.19,430.95 L 339.73,426.95 L 338.64,419.95 L 336.61,411.95 L 332.81,401.95 L 330.45,396.95 L 325.70,388.95 L 320.53,381.95 L 315.38,376.37 L 311.38,372.68 L 305.38,367.79 L 297.38,362.82 L 290.38,359.57 L 282.38,356.54 L 276.38,354.79 L 270.38,353.73 L 262.38,352.88 L 253.38,352.80 L 242.38,353.93 L 234.38,355.59 L 230.38,356.77 L 224.38,358.88 L 218.38,361.50 L 206.91,367.95 L 200.38,372.50 L 196.38,375.72 L 191.38,380.06 L 186.38,385.09 L 180.38,392.01 L 171.31,404.95 L 165.95,413.95 L 159.04,427.95 L 150.16,448.95 L 142.93,467.95 L 127.01,512.95 L 73.86,671.95 L 64.39,697.95 L 61.38,704.93 L 59.77,707.95 L 57.67,710.95 L 54.38,714.24 L 51.38,716.15 L 49.38,716.98 L 44.38,718.11 L 39.38,717.64 L 35.29,715.95 L 33.38,714.49 L 31.38,712.24 L 29.19,707.95 L 28.38,703.95 L 28.37,699.95 L 29.03,695.95 L 30.83,689.95 L 64.73,589.95 L 160.76,303.95 L 210.19,154.95 L 217.86,133.95 L 236.15,90.95 L 252.00,57.95 L 260.16,42.95 L 261.38,41.89 L 262.38,42.63 L 262.88,43.95 L 265.51,52.95 L 267.44,60.95 L 270.61,75.95 L 273.72,93.95 L 275.63,110.95 L 277.32,132.95 L 277.77,144.95 L 277.55,158.95 L 276.71,176.95 L 274.73,198.95 L 272.57,214.95 L 269.53,232.95 L 265.62,251.95 L 259.12,278.95 L 250.77,306.95 L 248.67,312.95 L 247.38,314.54 L 230.38,317.63 L 222.38,319.76 L 213.38,322.71 L 204.38,326.56 L 196.38,330.51 L 184.38,337.86 L 180.38,340.88 L 171.38,348.61 L 165.38,354.54 L 159.38,361.06 L 157.34,363.95 L 156.19,366.95 L 156.19,369.95 L 156.83,371.95 L 158.38,374.17 L 161.38,375.94 L 164.38,376.33 L 167.38,375.55 L 169.69,373.95 L 178.38,364.01 L 187.38,355.67 L 195.38,349.82 L 203.38,344.92 L 216.38,338.62 L 228.38,334.68 L 241.38,331.82 L 256.38,329.89 L 258.38,328.86 L 260.41,326.95 L 261.60,324.95 L 262.64,321.95 L 268.70,302.95 L 276.53,274.95 L 281.67,252.95 L 285.68,232.95 L 288.47,215.95 L 291.51,191.95 L 293.37,164.95 L 293.67,146.95 L 292.62,121.95 L 290.69,99.95 L 288.55,84.95 L 285.76,69.95 L 282.82,56.95 L 275.60,30.95 L 270.93,16.95 L 269.38,14.48 L 267.38,12.90 L 264.38,12.00 L 261.38,12.42 L 259.38,13.44 L 257.89,14.95 L 250.05,27.95 L 232.15,61.95 L 219.07,89.95 L 212.10,105.95 L 201.17,132.95 L 195.96,146.95 L 114.66,390.95 L 101.25,429.95 L 80.70,491.95 L 14.92,686.95 L 13.10,692.95 L 12.00,699.95 L 12.12,705.95 L 13.74,712.95 L 15.36,716.95 L 17.80,720.95 L 20.97,724.95 L 24.38,728.12 L 27.38,730.27 L 30.38,731.72 L 35.38,733.35 L 39.38,734.10 L 44.38,734.29 L 48.38,733.96 L 52.38,733.15 L 57.38,731.36 L 61.38,729.27 L 65.38,726.41 L 68.91,722.95 L 72.38,718.59 L 74.72,714.95 L 77.58,708.95 L 88.72,677.95 L 112.74,606.95 L 138.25,529.95 L 152.02,489.95 L 159.06,470.95 L 169.23,444.95 L 174.09,433.95 L 181.32,419.95 L 187.93,408.95 L 193.17,401.95 L 198.33,395.95 L 202.38,391.77 L 207.76,386.95 L 212.38,383.47 L 218.38,379.59 L 223.41,376.95 L 230.38,373.84 L 234.38,372.40 L 240.38,370.82 L 246.38,369.62 L 251.38,369.15 L 262.38,369.17 L 269.38,369.93 L 276.38,371.52 L 280.38,372.85 L 289.30,376.95 L 295.38,380.74 L 299.38,383.72 L 304.38,388.41 L 308.42,392.95 L 312.75,398.95 L 316.38,405.18 L 318.67,409.95 L 321.43,417.95 L 323.12,425.95 L 324.03,432.95 L 324.24,440.95 L 323.55,448.95 L 322.55,454.95 L 321.47,458.95 L 319.82,463.95 L 317.63,468.95 L 313.38,476.63 L 307.38,484.62 L 300.38,491.36 L 291.38,498.07 L 284.38,502.09 L 279.38,504.32 L 274.38,506.08 L 264.38,508.44 L 255.38,509.24 L 246.38,509.10 L 238.38,508.09 L 234.38,507.25 L 227.38,505.16 L 217.38,501.04 L 210.38,497.06 L 206.38,494.30 L 201.38,490.27 L 198.38,488.71 L 196.38,488.33 L 193.38,488.77 L 191.02,489.95 L 189.19,491.95 L 188.04,494.95 L 188.00,497.95 L 188.38,499.90 L 190.94,507.95 L 198.14,527.95 L 207.13,548.95 L 214.15,563.95 L 222.04,578.95 L 231.10,594.95 L 241.29,610.95 L 255.38,630.25 L 265.68,642.95 L 277.38,655.88 L 285.33,663.95 L 297.38,675.12 L 313.38,688.13 L 327.38,698.15 L 347.38,710.28 L 365.38,719.26 L 382.38,726.45 L 395.38,731.16 L 413.38,736.21 L 433.38,740.55 L 442.38,742.13 L 453.38,743.44 L 473.38,744.85 L 490.42,744.95 Z" fill="#000000" stroke="#000000" stroke-width="10" stroke-linejoin="round" stroke-linecap="round"/>
</svg>
